<svg xmlns="http://www.w3.org/2000/svg" viewBox="0 0 222.22 374.95"><defs><style>.cls-1{fill:#fff;}.cls-2{fill:#ff9500;}.cls-3{fill:#ffbe00;}.cls-17,.cls-4{fill:#ffd500;}.cls-5{fill:#ffccc5;}.cls-6{fill:#ffafb1;}.cls-7{fill:#6bc2f8;}.cls-8{fill:#0096f1;}.cls-9{fill:#007af1;}.cls-10{fill:#deecff;}.cls-11{fill:#ff6a00;}.cls-12{fill:#00253b;}.cls-13{fill:none;}.cls-13,.cls-14,.cls-15,.cls-16,.cls-17{stroke:#00253b;stroke-miterlimit:10;}.cls-13,.cls-14,.cls-15,.cls-16{stroke-linecap:round;}.cls-14{fill:#c69c6d;}.cls-15{fill:#3fa9f5;}.cls-16{fill:#bdccd4;stroke-width:0.75px;}</style></defs><g id="Layer_2" data-name="Layer 2"><g id="Layer_13" data-name="Layer 13"><path class="cls-1" d="M12.14,303.59l33,16,3,4.6s2.19,9.28-4,12.21a59.55,59.55,0,0,1-9.35,3.75l-3,1.08-.87-1L8.74,305.12l2.61-1.53Z"/><polygon class="cls-2" points="36.41 316.68 44.61 319.62 36.41 309.19 29.51 301 36.41 316.68"/><polygon class="cls-1" points="119.14 353.96 104.59 363.83 84.08 371.68 84.08 374.45 133.41 374.45 133.33 371.68 133.37 364.49 130.57 356.92 124.52 354.43 119.14 353.96"/><polygon class="cls-3" points="88.29 355.98 99.27 357.8 114.81 357.8 113.18 361.55 112.65 367.78 114.05 371.68 84.08 371.68 83.63 364.86 87.09 355.98 88.29 355.98"/><polyline class="cls-3" points="29.51 296.45 21.77 296.86 14.55 299.52 11.35 303.59 23.76 323.27 29.98 318.28 36.41 316.68 29.51 296.45"/><polyline class="cls-2" points="97.04 357.8 114.81 357.8 118.51 353.96 105.34 353.96 97.04 357.8"/><polygon class="cls-1" points="143.11 34.54 140.18 33.69 130.25 41.09 130.25 44.49 131.23 72.16 132.92 74.19 134.81 75.01 143.11 34.54"/><polygon class="cls-4" points="141.83 34.54 132.33 41.96 133.88 74.64 134.81 75.01 142.56 66.44 143.29 45.34 143.11 34.54 141.83 34.54"/><polygon class="cls-5" points="84.08 348.36 102.17 339.17 101.35 335.61 81.19 340.22 84.08 348.36"/><polyline class="cls-5" points="81.19 340.22 86.49 358.05 94.23 358.69 105.34 353.96 101.35 335.61 81.19 340.22"/><polygon class="cls-5" points="29.51 296.45 43.48 287.95 52.16 304.83 39.18 313.07 31.89 304.08 29.51 296.45"/><polygon class="cls-5" points="133.1 55.42 136.52 53.71 141.55 54.41 142.78 53.36 142.78 50.61 138.07 44.43 138.64 42.73 140.09 42.73 143.29 45.34 146.17 48.24 150.7 57 150.7 62.53 147.87 72.57 139.32 74.47 135.53 66.25 133.1 63.93 133.1 55.42"/><polygon class="cls-5" points="121.04 59 127.33 60.34 129.13 62.06 129.13 66.19 128.37 73.55 125.42 78.46 116.9 75.3 112.58 62.66 113.78 59.45 117.11 54.55 122.22 51.43 125.5 50.54 125.99 51.32 126.12 52.37 123.23 54.55 120.86 56.36 120.15 57.99 121.04 59"/><polygon class="cls-6" points="84.08 348.36 102.17 339.17 100.39 331.32 81.08 335.61 81.19 340.22 84.08 348.36"/><polygon class="cls-6" points="38.81 291.38 43.25 310.31 50.53 305.38 48.29 287.43 43.48 287.95 38.81 291.38"/><path class="cls-7" d="M74.07,331.55l3.12,8.67s24.49-1.57,26.84-5.9l-2.62-11.9-27.34,9.13"/><polygon class="cls-7" points="56.47 309.28 70.35 299.52 48.29 277.84 39.9 282.75 44.99 297.29 50.53 305.38 56.47 309.28"/><path class="cls-8" d="M104,162.56l3.25,5.4,8.22,82.35-1.4,4.1-11.5,15.88-7.44,8.4,7.35,45.69s-10.67,8.22-28.44,7.17l-9.66-26.9-1.24.73s-9-4.39-14.88-27.54l3.9-2.95L34.3,235.59l-5.8-18V201.3l3.51-18,3.52-12.89Z"/><path class="cls-9" d="M84.4,224.19S96,252.42,95.16,274.89Z"/><polygon class="cls-9" points="55.73 281.75 57.38 299.52 63.17 305.38 64.42 304.65 55.73 281.75"/><path class="cls-1" d="M33.3,89.4l6.93-9.64L48.7,83.3l16.17,3.94L71,84.58l3-5.82,20.11,2L100,111.34l-1.18,16.33,6,27.57L107.28,168,100,171.33s-19.39,7.49-25.24,6.7-17.14,3-39.33-2.95L28,158,16.57,121.24l4.49-13,3-5.46L33.3,89.4"/><path class="cls-10" d="M59.29,136.88s25.66,16.94,42.7,4L99.7,126.9l-40.41,10"/><path class="cls-11" d="M36,85.45S50.32,93.13,56.63,99,77,105.12,77,105.12l11.68-2.39,4.61-2L91,94.57s-12.31-14.4-19.61-13.2h0l18.84-8,11.31,21.14,6.75-6.78L116.9,75.3l8.52,3.16L122,89.25l-7.1,16.82,9.83-4.81,8.7-8.4,4.82-10.14,1.12-8.25,8.55-1.9-1.12,10.28L145,97.43l-4.2,11.94-4,7.08-6.33,7.28-8.18,5.69-11.68,3-9.6.42L99.7,126.9l-7.59,6.44-10.66,4.78-8,1.07-8.83-1-7.93-2.74-7.91-3.74-5.46-5a57.87,57.87,0,0,1-23.15-19.68L31.86,83.51Z"/><polyline class="cls-11" points="44.54 82.16 55.59 87.31 63.75 89.26 69.53 88.81 71.86 86.98 73.36 84.72 74.03 78.76 46.2 77.34 44.54 82.16"/><polyline class="cls-12" points="73.05 23.02 62.31 73.55 70.8 81.53 78.87 81.67 85.61 83.84 90.62 87.01 94.44 90.74 98.49 96.68 100.95 94.68 95.83 65.76 92.18 33.98 88.75 23.02 82.48 15.31 75.77 11.13 67.28 9.45 60.12 8.2 53.74 8.2 45.99 9.5 38.56 13.68 32.2 20.41 26.35 31.48 23.53 44.38 23.89 59.89 25.48 79.4 24.51 89.46 21.56 98.01 16.28 106.06 8.65 116.28 3.45 127.06 0.95 136.5 0.95 147.26 3.22 153.92 7.41 159.41 14.51 164.1 22.12 166.62 31.77 167.94 23.84 139.35 20.27 117.92 21.06 108.22 22.8 102.51 26.8 94.81 32.04 89.87 38.61 85.09 47.34 80.78 73.05 23.02 73.05 23.02"/><polygon class="cls-12" points="107.28 132.92 106.71 146.04 104.49 153.59 100.99 132.84 107.28 132.92"/><path class="cls-5" d="M47.34,80.78s22.32,10.35,23.46.75l-1.27-7,6.24-1.19,6.7-4.25,3.86-5.52,2.35-6.82.95-10.07L88.37,42l-5.13-8.07L73.05,23l-5.52,8.66-6.82,7.07-7.64,5.63-8.21,4.3-2.62.18L38,50.33l-2,2.72L36.26,57l3,3.83,3.57,2.09,3.29.38Z"/><ellipse class="cls-6" cx="60.12" cy="54.36" rx="3.97" ry="3.16"/><ellipse class="cls-6" cx="85.61" cy="50.54" rx="3.13" ry="2.49"/><path class="cls-6" d="M69,74.06s-6.22.24-10.39-3.93A10.7,10.7,0,0,0,69.53,77Z"/><circle class="cls-12" cx="61.85" cy="46.62" r="2.24"/><circle class="cls-12" cx="80.91" cy="45.16" r="2.06"/><path class="cls-13" d="M66.4,59.93S74.83,65.2,79.7,58"/><path class="cls-13" d="M76.31,48.86s6.11,5.15-.54,6"/><path class="cls-13" d="M39.22,53.64s4.21-1,4.21,3.87"/><path class="cls-13" d="M42.79,126.89s51.32,49.43,82.47-48.61l-8.65-3.2S92.92,121.27,55.78,98.89"/><path class="cls-13" d="M47.34,80.78S71,90.53,70.8,81.53c0,0,17.49-3.55,27.69,15.15"/><path class="cls-13" d="M114.1,106s23.38-5.25,24.71-31.3l8.49-1.93S149.93,136,101,132.89"/><line class="cls-13" x1="90.41" y1="94.73" x2="92.73" y2="100.46"/><path class="cls-13" d="M34.61,174.86s-10.12,26.64-4.3,48.62,26.84,60.94,26.84,60.94l20,55.8a55.66,55.66,0,0,0,26.84-5.9S93.27,263.18,91,257.56,82.58,211,82.09,208.37"/><path class="cls-13" d="M107.23,167.57s8.7,75.58,8.27,82.74-20.34,28.38-20.34,28.38"/><path class="cls-13" d="M52.19,274.89,39.9,282.75s4,21.24,16.57,26.53l7.94-4.63"/><path class="cls-13" d="M81.08,340.23l5.41,17.82s7.68,3,18.85-4.09l-4-18.35"/><path class="cls-13" d="M86.49,358.05a18,18,0,0,0-2.41,13.63h49.25s3.44-19.62-13.94-17.72h-14"/><path class="cls-13" d="M119.39,354s-10.44,5.3-5.34,17.72"/><polyline class="cls-13" points="84.08 371.68 84.08 374.45 133.41 374.45 133.33 371.68"/><line class="cls-13" x1="97.04" y1="357.8" x2="114.81" y2="357.8"/><path class="cls-13" d="M50.66,305.29l-11.48,7.78-7.13-10s-2.35-4.69-2.54-6.66l12-7.51"/><path class="cls-13" d="M29.51,296.45s-11.74-1.86-18.42,7.14L34.3,340.27s20.85-3.2,12.69-18.66l-7.81-8.54"/><polyline class="cls-13" points="11.09 303.59 8.74 304.92 31.54 341.26 34.3 340.27"/><path class="cls-13" d="M47,321.61s-10.12-11.38-23.23,2"/><line class="cls-13" x1="30.31" y1="299.52" x2="36.41" y2="317.1"/><path class="cls-13" d="M74.07,331.55s18.33,0,28.44-7.17"/><path class="cls-13" d="M48.29,277.39s3,18.83,14.88,28"/><path class="cls-13" d="M43.14,177.36s-9.45,23.44,1.5,50.57"/><path class="cls-13" d="M59.15,178.7s2.57,24.77-18.74,27.91"/><path class="cls-13" d="M143.81,45.16l-.43-9.92a1.2,1.2,0,0,0-1.95-.88l-8.66,7a1.19,1.19,0,0,0-.44,1l1.23,31.5a1.19,1.19,0,0,0,2.1.73l2.13-2.49"/><path class="cls-13" d="M133.88,74.64l-1-.45a3.12,3.12,0,0,1-1.8-2.68l-1.21-29a2.92,2.92,0,0,1,1.13-2.4l7.56-5.8a3.4,3.4,0,0,1,3.15-.53l.81.27"/><path class="cls-13" d="M116.61,75.08l-3.86-11.49a3.25,3.25,0,0,1,.15-2.45c1.44-3,5.76-10.59,12.81-10.17l.05.05a1.33,1.33,0,0,1-.22,2.1l-3.71,2.29a3.33,3.33,0,0,0-1.11,1.16l-.4.72a1.41,1.41,0,0,0,1,2.07l5.61.88a2.8,2.8,0,0,1,2.35,2.46c.43,3.74.63,11.46-4,15.58"/><path class="cls-13" d="M147.3,72.79s5-11.75,3.06-16.36l-3.77-7.54a3.78,3.78,0,0,0-.75-1l-5.09-5a1.4,1.4,0,0,0-1.12-.41l-.42,0a1.51,1.51,0,0,0-.88,2.44l4.26,5.34a1.36,1.36,0,0,1,.29.84v1.74a1.59,1.59,0,0,1-2,1.54L138,53.63a2.36,2.36,0,0,0-1.69.19l-3.43,1.73.33,8,2.24,2.44,3.4,8.78"/><path class="cls-13" d="M70.8,81.53c-.3-.52-1.27-7-1.27-7,21.7-1.11,20.1-27.85,20.1-27.85C89.2,37.51,73.05,23,73.05,23S66.19,39.41,44.86,48.68c0,0-10.85-.41-8.84,7.54,1.64,6.46,10.06,7,10.06,7l1.26,17.57s-27.07,9.38-27.07,32.91,14.34,61.17,14.34,61.17c44.39,11.79,72.62-7.29,72.62-7.29l-7.92-40.4"/><path class="cls-13" d="M31.77,167.94c-45.11-2.77-32.71-42.49-16.49-60.72C38.8,80.78,11.6,53.93,30.47,23,41.27,5.34,57.12,7.1,64,9a12.23,12.23,0,0,0,4,.42c4.74-.3,22.75,3.89,24.77,28.91A448.63,448.63,0,0,0,101,94.68"/><path class="cls-13" d="M107.23,132.92s.62,16-2.74,20.67"/><path class="cls-13" d="M73.52,81.27c.74,17.83-29.2.77-29.2.77"/><line class="cls-13" x1="147.32" y1="37.52" x2="152" y2="33.65"/><line class="cls-13" x1="147.87" y1="41.09" x2="153.53" y2="41.09"/><line class="cls-13" x1="147.32" y1="45.16" x2="151.51" y2="49.34"/><line class="cls-13" x1="145.37" y1="32.17" x2="147.32" y2="27.33"/><rect class="cls-14" x="161.4" y="0.5" width="60.32" height="70.17"/><polygon class="cls-15" points="165.63 5.42 165.63 39.28 165.63 65.75 217.49 65.75 217.49 5.42 165.63 5.42"/><polygon class="cls-16" points="165.63 45.11 217.49 28.49 217.49 60.07 165.63 51.95 165.63 45.11"/><polygon class="cls-17" points="217.49 5.42 217.49 28.49 165.63 45.11 165.63 5.42 217.49 5.42"/></g></g></svg>