<svg xmlns="http://www.w3.org/2000/svg" viewBox="0 0 752.34 739.24"><defs><style>.cls-1,.cls-2{fill:#6bc2f8;}.cls-2,.cls-21,.cls-22,.cls-23,.cls-24{stroke:#000;}.cls-14,.cls-15,.cls-16,.cls-17,.cls-18,.cls-19,.cls-2,.cls-21,.cls-22,.cls-23{stroke-miterlimit:10;}.cls-2{stroke-width:3px;}.cls-3{fill:#fff;}.cls-4{fill:#ff9500;}.cls-5{fill:#ffbe00;}.cls-18,.cls-6{fill:#ffd500;}.cls-7{fill:#ffccc5;}.cls-8{fill:#ffafb1;}.cls-9{fill:#0096f1;}.cls-10{fill:#007af1;}.cls-11,.cls-22{fill:#deecff;}.cls-12{fill:#ff6a00;}.cls-13{fill:#00253b;}.cls-14{fill:none;}.cls-14,.cls-15,.cls-16,.cls-17,.cls-18,.cls-19{stroke:#00253b;}.cls-14,.cls-15,.cls-16,.cls-17,.cls-19{stroke-linecap:round;}.cls-15{fill:#c69c6d;}.cls-16{fill:#3fa9f5;}.cls-17,.cls-19,.cls-23{fill:#bdccd4;}.cls-17{stroke-width:0.75px;}.cls-20{fill:#cfdade;}.cls-21{fill:#df5e08;}.cls-24{fill:#ff931e;stroke-linejoin:round;}</style></defs><g id="Layer_2" data-name="Layer 2"><g id="Layer_13" data-name="Layer 13"><path class="cls-1" d="M680.71,737.74l-609.2-.25S113.46,397.4,372.17,379.2,674.57,560,680.71,737.74Z"/><line class="cls-2" y1="737.74" x2="752.34" y2="737.74"/><path class="cls-3" d="M105.86,596l64.9,31.5,5.82,9s4.32,18.23-7.8,24-18.38,7.37-18.38,7.37L144.46,670l-1.7-1.95L99.17,599l5.13-3Z"/><polygon class="cls-4" points="153.53 621.73 169.65 627.51 153.53 607.02 139.99 590.93 153.53 621.73"/><polygon class="cls-3" points="316.08 694.97 287.5 714.38 247.21 729.8 247.21 735.25 344.13 735.25 343.96 729.8 344.05 715.67 338.55 700.79 326.65 695.89 316.08 694.97"/><polygon class="cls-5" points="255.48 698.96 277.04 702.52 307.58 702.52 304.37 709.9 303.33 722.13 306.09 729.8 247.21 729.8 246.32 716.4 253.12 698.96 255.48 698.96"/><polyline class="cls-5" points="139.99 581.99 124.78 582.78 110.59 588.01 104.3 596.01 128.69 634.68 140.92 624.88 153.53 621.73 139.99 581.99"/><polyline class="cls-4" points="272.68 702.52 307.58 702.52 314.85 694.97 288.98 694.99 272.68 702.52"/><polygon class="cls-3" points="363.18 67.39 357.42 65.7 337.92 80.26 337.92 86.94 339.84 141.29 343.16 145.28 346.88 146.89 363.18 67.39"/><polygon class="cls-6" points="360.67 67.39 342 81.95 345.06 146.16 346.88 146.89 362.1 130.06 363.54 88.6 363.18 67.39 360.67 67.39"/><polygon class="cls-7" points="247.21 683.97 282.75 665.91 281.14 658.92 241.53 667.99 247.21 683.97"/><polyline class="cls-7" points="241.53 667.99 251.94 703.01 267.16 704.28 288.98 694.99 281.14 658.92 241.53 667.99"/><polygon class="cls-7" points="139.99 581.99 167.44 565.29 184.48 598.44 158.99 614.63 144.66 596.97 139.99 581.99"/><polygon class="cls-7" points="343.52 108.4 350.25 105.05 360.12 106.41 362.54 104.36 362.54 98.95 353.28 86.81 354.4 83.47 357.25 83.47 363.54 88.6 369.2 94.31 378.09 111.51 378.09 122.37 372.53 142.1 355.74 145.84 348.29 129.68 343.52 125.12 343.52 108.4"/><polygon class="cls-7" points="319.82 115.44 332.19 118.07 335.73 121.45 335.73 129.57 334.21 144.03 328.44 153.67 311.69 147.47 303.2 122.64 305.55 116.31 312.09 106.7 322.15 100.57 328.59 98.82 329.56 100.36 329.8 102.41 324.12 106.7 319.46 110.26 318.07 113.47 319.82 115.44"/><polygon class="cls-8" points="247.21 683.97 282.75 665.91 279.25 650.5 241.3 658.92 241.53 667.99 247.21 683.97"/><polygon class="cls-8" points="158.26 572.02 166.98 609.22 181.28 599.52 176.88 564.26 167.44 565.29 158.26 572.02"/><path class="cls-1" d="M227.55,650.94l6.12,17s48.11-3.1,52.73-11.61L281.25,633l-53.7,17.92"/><polygon class="cls-1" points="192.95 607.19 220.22 588.01 176.88 545.42 160.4 555.07 170.4 583.63 181.28 599.52 192.95 607.19"/><path class="cls-9" d="M286.4,318.93l6.38,10.6L309,491.32l-2.76,8.07-22.61,31.2L269,547.09l14.43,89.78s-21,16.14-55.86,14.07l-19-52.84-2.45,1.42s-17.66-8.62-29.24-54.1l7.66-5.79L149.4,462.4,138,427V395l6.88-35.32,6.92-25.34Z"/><path class="cls-10" d="M247.84,440s22.84,55.48,21.14,99.63Z"/><polygon class="cls-10" points="191.5 553.1 194.74 588.01 206.12 599.52 208.57 598.1 191.5 553.1"/><path class="cls-3" d="M147.42,175.17,161,156.24l16.65,6.95,31.78,7.75,12.1-5.24,5.9-11.43,39.49,4,11.46,60-2.31,32.09,11.83,54.16,4.84,25-14.24,6.62s-38.1,14.71-49.59,13.16-33.67,5.95-77.27-5.8l-14.63-33.58-22.48-72.2,8.82-25.57,5.88-10.74,18.15-26.25"/><path class="cls-11" d="M198.49,268.46s50.42,33.28,83.9,7.8l-4.49-27.41-79.41,19.61"/><path class="cls-12" d="M152.66,167.41s28.21,15.1,40.61,26.57,40,12.09,40,12.09l22.94-4.7,9.06-4-4.55-12.05s-24.2-28.28-38.54-25.93h0l37-15.69,22.24,41.52,13.24-13.32,17-24.43,16.75,6.2-6.84,21.22-13.94,33L327,198.48,344.07,182,353.55,162l2.18-16.2,16.8-3.74-2.19,20.2L366.84,191l-8.24,23.45-7.86,13.9-12.42,14.31-16.08,11.19-22.95,5.89-18.85.82-2.54-11.67L263,261.51,242,270.9l-15.7,2.1L209,271l-15.58-5.38-15.55-7.34-10.72-9.76s-26.26-10.68-45.48-38.65l22.94-46.27Z"/><polyline class="cls-12" points="169.52 160.95 191.23 171.07 207.26 174.9 218.62 174.02 223.18 170.42 226.15 165.97 227.47 154.27 172.78 151.47 169.52 160.95"/><polyline class="cls-13" points="225.53 44.75 204.43 144.03 221.11 159.71 236.97 159.98 250.21 164.25 260.05 170.47 267.56 177.8 275.52 189.47 280.35 185.54 270.29 128.73 263.12 66.28 256.37 44.75 244.06 29.61 230.87 21.38 214.2 18.09 200.13 15.63 187.59 15.63 172.36 18.19 157.76 26.39 145.28 39.62 133.78 61.37 128.23 86.72 128.93 117.19 132.08 155.52 130.17 175.28 124.36 192.09 113.98 207.9 99.01 227.99 88.78 249.16 83.87 267.71 83.87 288.86 88.34 301.94 96.56 312.73 110.51 321.95 125.47 326.9 144.42 329.49 128.84 273.32 121.84 231.2 123.39 212.16 126.81 200.93 134.65 185.79 144.96 176.09 157.87 166.7 175.01 158.24 225.53 44.75 225.53 44.75"/><polygon class="cls-13" points="292.8 260.67 291.66 286.46 287.3 301.29 280.44 260.52 292.8 260.67"/><path class="cls-7" d="M175,158.24s43.86,20.34,46.09,1.47l-2.49-13.82,12.25-2.33L244,135.2l7.59-10.85L256.24,111l1.87-19.79L255.63,82,245.55,66.15l-20-21.4-10.85,17-13.4,13.89-15,11.08-16.14,8.45-5.14.34-8.41,2.89-4,5.35.63,7.72,5.82,7.52,7,4.11,6.46.74Z"/><ellipse class="cls-8" cx="200.13" cy="106.32" rx="7.79" ry="6.2"/><ellipse class="cls-8" cx="250.21" cy="98.82" rx="6.16" ry="4.9"/><path class="cls-8" d="M217.6,145s-12.23.46-20.42-7.74c0,0,4.57,14.09,21.44,13.43Z"/><circle class="cls-13" cx="203.53" cy="91.11" r="4.4"/><circle class="cls-13" cx="240.97" cy="88.24" r="4.05"/><path class="cls-14" d="M212.46,117.26s16.57,10.36,26.14-3.8"/><path class="cls-14" d="M231.94,95.51s12,10.12-1.07,11.86"/><path class="cls-14" d="M159.07,104.91s8.27-1.87,8.27,7.61"/><path class="cls-14" d="M166.08,248.83s100.83,97.13,162-95.5l-17-6.29s-46.55,90.75-119.52,46.77"/><path class="cls-14" d="M175,158.24s46.43,19.15,46.09,1.47c0,0,34.37-7,54.41,29.76"/><path class="cls-14" d="M306.18,207.82s45.94-10.31,48.55-61.49l16.69-3.8s5.16,124.16-91.07,118.1"/><line class="cls-14" x1="259.64" y1="185.64" x2="264.19" y2="196.91"/><path class="cls-14" d="M150,343.08s-19.9,52.34-8.45,95.54,52.73,119.73,52.73,119.73L233.67,668s26.81,1.93,52.73-11.61c0,0-21.14-139.77-25.65-150.8s-16.5-91.55-17.46-96.65"/><path class="cls-14" d="M292.69,328.77S309.78,477.27,309,491.32s-40,55.77-40,55.77"/><path class="cls-14" d="M184.54,539.63,160.4,555.07s7.76,41.73,32.55,52.12l15.62-9.09"/><path class="cls-14" d="M241.3,668l10.64,35s15.1,6,37-8l-7.84-36.07"/><path class="cls-14" d="M251.94,703a35.39,35.39,0,0,0-4.73,26.79H344s6.76-38.56-27.39-34.83L289,695"/><path class="cls-14" d="M316.58,695s-20.52,10.43-10.49,34.83"/><polyline class="cls-14" points="247.21 729.8 247.21 735.25 344.13 735.25 343.96 729.8"/><line class="cls-14" x1="272.68" y1="702.52" x2="307.58" y2="702.52"/><path class="cls-14" d="M181.55,599.35,159,614.63l-14-19.56s-4.6-9.22-5-13.08l23.65-14.77"/><path class="cls-14" d="M140,582s-23.07-3.66-36.19,14l45.61,72.07s41-6.29,24.92-36.67L159,614.63"/><polyline class="cls-14" points="103.79 596.01 99.17 598.63 143.97 670.03 149.4 668.09"/><path class="cls-14" d="M174.32,631.41s-19.87-22.35-45.63,4"/><line class="cls-14" x1="141.56" y1="588.01" x2="153.53" y2="622.55"/><path class="cls-14" d="M227.55,650.94s36,.09,55.86-14.07"/><path class="cls-14" d="M176.88,544.53s5.87,37,29.24,55"/><path class="cls-14" d="M166.77,348s-18.58,46.06,2.93,99.36"/><path class="cls-14" d="M198.22,350.64s5.05,48.66-36.83,54.83"/><path class="cls-14" d="M364.56,88.24l-.85-19.49A2.35,2.35,0,0,0,359.88,67l-17,13.8a2.37,2.37,0,0,0-.86,1.92l2.41,61.89a2.35,2.35,0,0,0,4.14,1.43l4.18-4.9"/><path class="cls-14" d="M345.06,146.16l-1.9-.88a6.07,6.07,0,0,1-3.52-5.27l-2.38-56.88a5.65,5.65,0,0,1,2.21-4.73L354.33,67a6.68,6.68,0,0,1,6.18-1l1.59.53"/><path class="cls-14" d="M311.12,147l-7.58-22.59a6.43,6.43,0,0,1,.28-4.8c2.85-6,11.32-20.81,25.18-20l.1.1a2.61,2.61,0,0,1-.43,4.13l-7.29,4.5a6.22,6.22,0,0,0-2.18,2.29l-.79,1.41a2.76,2.76,0,0,0,2,4.06l11,1.73a5.52,5.52,0,0,1,4.62,4.83c.83,7.36,1.24,22.52-7.93,30.62"/><path class="cls-14" d="M371.42,142.53s9.91-23.09,6-32.15L370,95.58a7.74,7.74,0,0,0-1.48-2l-10-9.87a2.8,2.8,0,0,0-2.21-.8,6.45,6.45,0,0,0-.83.1,3,3,0,0,0-1.73,4.79l8.37,10.5a2.62,2.62,0,0,1,.57,1.64v3.43a3.12,3.12,0,0,1-3.89,3l-5.77-1.48a4.69,4.69,0,0,0-3.33.37l-6.74,3.4.65,15.62,4.41,4.8,6.67,17.25"/><path class="cls-14" d="M221.11,159.71c-.58-1-2.49-13.82-2.49-13.82,42.64-2.17,39.49-54.71,39.49-54.71-.84-18-32.58-46.43-32.58-46.43S212.06,77,170.14,95.17c0,0-21.31-.81-17.36,14.81,3.21,12.69,19.76,13.73,19.76,13.73L175,158.24s-53.18,18.43-53.18,64.66S150,343.08,150,343.08c87.21,23.16,142.68-14.31,142.68-14.31l-15.57-79.4"/><path class="cls-14" d="M144.42,329.49C55.8,324,80.15,246,112,210.18c46.22-51.94-7.23-104.69,29.86-165.43C163.1,10,194.24,13.47,207.69,17.24a23.87,23.87,0,0,0,7.84.82c9.31-.58,44.7,7.65,48.66,56.81a881.4,881.4,0,0,0,16.16,110.67"/><path class="cls-14" d="M292.69,260.67s1.22,31.41-5.39,40.61"/><path class="cls-14" d="M226.46,159.2c1.45,35-57.37,1.51-57.37,1.51"/><line class="cls-14" x1="371.46" y1="73.25" x2="380.65" y2="65.63"/><line class="cls-14" x1="372.53" y1="80.26" x2="383.65" y2="80.26"/><line class="cls-14" x1="371.46" y1="88.24" x2="379.69" y2="96.47"/><line class="cls-14" x1="367.63" y1="62.73" x2="371.46" y2="53.21"/><rect class="cls-15" x="399.12" y="0.5" width="118.52" height="137.87"/><polygon class="cls-16" points="407.43 10.17 407.43 76.69 407.43 128.7 509.32 128.7 509.32 10.17 407.43 10.17"/><polygon class="cls-17" points="407.43 88.16 509.32 55.49 509.32 117.54 407.43 101.6 407.43 88.16"/><polygon class="cls-18" points="509.32 10.17 509.32 55.49 407.43 88.16 407.43 10.17 509.32 10.17"/><rect class="cls-19" x="358.28" y="425.75" width="249.46" height="18.17" rx="9.09"/><path class="cls-19" d="M390,443.92H578a0,0,0,0,1,0,0V713.45a20.11,20.11,0,0,1-20.11,20.11H410.14A20.11,20.11,0,0,1,390,713.45V443.92A0,0,0,0,1,390,443.92Z"/><rect class="cls-20" x="406.39" y="444.9" width="9.18" height="292.03"/><rect class="cls-20" x="429.15" y="444.9" width="9.18" height="292.03"/><rect class="cls-20" x="451.91" y="444.9" width="9.18" height="292.03"/><rect class="cls-20" x="473.83" y="444.9" width="9.18" height="292.03"/><rect class="cls-20" x="497.44" y="444.9" width="9.18" height="292.03"/><rect class="cls-20" x="520.2" y="444.71" width="9.18" height="292.03"/><rect class="cls-20" x="542.97" y="444.9" width="9.18" height="292.03"/><rect class="cls-20" x="567.87" y="444.92" width="9.18" height="292.03"/><line class="cls-19" x1="415.57" y1="443.9" x2="415.57" y2="733.54"/><line class="cls-19" x1="438.33" y1="443.9" x2="438.33" y2="733.54"/><line class="cls-19" x1="461.09" y1="443.9" x2="461.09" y2="733.54"/><line class="cls-19" x1="483.86" y1="443.9" x2="483.86" y2="733.54"/><line class="cls-19" x1="506.62" y1="443.9" x2="506.62" y2="733.54"/><line class="cls-19" x1="529.38" y1="443.9" x2="529.38" y2="733.54"/><line class="cls-19" x1="552.15" y1="443.9" x2="552.15" y2="733.54"/><rect class="cls-19" x="358.28" y="719.05" width="249.46" height="18.17" rx="9.09"/><polygon class="cls-21" points="438.33 296.9 400.1 425.75 497.44 425.75 534.95 296.9 438.33 296.9"/><polygon class="cls-22" points="447.82 306.89 520.21 306.89 488.87 413.32 415.57 413.32 447.82 306.89"/><polygon class="cls-23" points="425.82 379.5 512.63 332.63 508.14 347.87 420.9 395.72 425.82 379.5"/><polygon class="cls-23" points="418.23 404.55 505.33 357.42 502.66 366.47 415.57 413.32 418.23 404.55"/><polygon class="cls-24" points="534.95 296.9 539.64 302.29 504.49 425.73 497.44 425.75 534.95 296.9"/><polygon class="cls-21" points="525.49 351.98 538.31 425.75 516.65 425.75 512.63 397.15 525.49 351.98"/><polygon class="cls-24" points="528.32 342.04 542.97 425.75 538.31 425.75 525.49 351.98 528.32 342.04"/></g></g></svg>