<svg xmlns="http://www.w3.org/2000/svg" viewBox="0 0 241.22 346.82"><defs><style>.cls-1{fill:#ffb0d7;}.cls-2{fill:#ffccc5;}.cls-3{fill:#ffafb1;}.cls-4{fill:#464ae9;}.cls-5{fill:#465fe9;}.cls-6{fill:#00253b;}.cls-7{fill:#ffc000;}.cls-8{fill:#ffd560;}.cls-9{fill:#ff8a3e;}.cls-10{fill:#fff;}.cls-11{fill:#4680e9;}.cls-12{fill:#6bc2f8;}.cls-13,.cls-14{fill:none;stroke:#00253b;stroke-miterlimit:10;}.cls-14{stroke-linecap:round;}</style></defs><g id="Layer_2" data-name="Layer 2"><g id="Layer_6" data-name="Layer 6"><path class="cls-1" d="M84.12,195.42s148.43-29.08,157.1,90.8v57.22L21.46,346.82S7.24,198.7,84.12,195.42h0"/><polygon class="cls-2" points="99.15 41.82 98.16 52.54 98.55 56.83 99.83 61.46 101.63 64.72 104.62 67.7 109.49 69.98 115.79 70.76 118.82 70.62 120.72 79.05 116.65 83.39 143.59 91.9 145.22 74.96 137.2 47.81 124.49 20.51 110.37 19.26 99.15 41.82"/><path class="cls-3" d="M119.16,70.12s8.72-2.41,13.42-5.94c0,0-7.74,8.84-13.37,8.46Z"/><ellipse class="cls-3" cx="123.94" cy="53.02" rx="2.74" ry="1.63"/><ellipse class="cls-3" cx="101.24" cy="53.02" rx="2.98" ry="1.63"/><polygon class="cls-2" points="96.53 44.05 90.34 49.27 90.34 62.36 90.96 71.08 99.83 61.46 96.53 44.05"/><polygon class="cls-2" points="106.02 168.92 77.5 181.82 88.57 204.58 119.45 184.61 106.02 168.92"/><polygon class="cls-2" points="23.5 273.34 28.57 294.08 60.02 320.09 75.99 304.32 75.99 280.28 23.5 273.34"/><polygon class="cls-3" points="25.62 279 28.57 294.08 43.2 292.9 52.89 264.14 25.62 279"/><polygon class="cls-3" points="43.2 297.98 75.99 304.32 75.99 280.28 43.2 297.98"/><polygon class="cls-4" points="134.23 41.43 134.11 51.8 135.28 55.58 137.12 57.56 140.99 58.88 146.82 59.88 151.32 57.56 162.22 31.34 138.06 9.08 132.58 8.52 122.83 9.76 119.16 11.31 136.84 35.84 134.23 41.43"/><polygon class="cls-4" points="99.15 41.82 98.27 50.25 98.16 52.54 98.55 56.83 99.83 61.46 99.23 62.36 96.28 60.17 94.65 55.36 94.65 48.51 95.78 44 99.15 41.82"/><path class="cls-5" d="M140.07,36.68s-2.56,1.79-2.56,4.34v11.8s.06,4.93,3.48,6.06,12.71-2.3,12.71-2.3l3.73-18L141.2,36.8Z"/><path class="cls-5" d="M125.5,8.86S143.94,13,141.77,36l5.7,2.32,2.13-16.9L138.06,9.08l-5.48-.56Z"/><polygon class="cls-6" points="114.31 27.36 117.72 33.15 122.12 37.8 125.87 40.54 129.24 41.98 134.21 42.83 135.82 39.01 139.33 36.68 139.13 29.75 137.66 23.11 135.06 18.65 131.78 14.73 126.68 12.04 119.16 11.31 117.52 11.51 113.67 11.7 107.84 13.27 101.98 17.11 97.73 23.41 95.78 30.18 96 35.44 97.48 39.71 99.15 41.82 101.25 41.2 106.35 38.31 110.07 33.9 114.31 27.36"/><path class="cls-6" d="M134.11,8.88s14.8,1.58,11.11,27.8l3.91,2.07,1.5,4.08v9.26L149.31,56l-2.65,2.2-5.67.73h-1l1.53,3.48,3.72-.44,6.23-3.16-.08,3.6L153,71.08l2.78,4.61,4.59,3.14,6.3,1,8.54-1.69,5.77-2.4,4.34-4.35,1.71-5.41-.7-7.17L181.68,47.9l-6-8.73-2.9-6.77-1.52-9L170.88,13,169.39,8.1l-4-4.11-5.31-2.78-5.9-.64-5.62,1.51-4.34,2.54L139.33,9.1Z"/><path class="cls-7" d="M120.72,79.05s6.74,11.84,24.5-4.09l12.21,4.92L168,87.39l7.2,9.22,6.07,19.8,1.61,20.23L180.07,153l-4.86,10.15v17.78l-5.36.91-24.4.3-12.46,1h-6.31l-12.88-1.29-9.8-.91-1.16-5.31,1.38-5.86L90.34,176l-.71-3.16,3.08-26.93,4.63-18.83-14.62-.6-11-3.45-5.86-5.33-2.36-4.61v-8.86L66,97.07l5.54-11.16L82.16,71.08l8.18-8.72,5.44,3.49L92.22,74.1l-1.88,6.37-1.08,6.92.37,2.91,1.93,3,5,1.52,5.35-1.53,11.79-5.5Z"/><polygon class="cls-8" points="93.83 140.79 92.57 145.92 91.58 154.57 179.17 154.57 179.93 152.98 182.03 140.79 93.83 140.79"/><polygon class="cls-8" points="66.01 97.07 63.47 104.24 63.47 113.1 65.83 117.71 71.69 123.04 82.72 126.49 97.33 127.09 95.85 133.12 182.61 133.12 181.28 116.41 175.21 96.61 173.77 94.77 67.15 94.77 66.01 97.07"/><path class="cls-9" d="M88.18,184.52,104,180.91s21.88,3.82,41.45,1.21c0,0,22.67,1.11,24.4-.3,0,0,14,52.64-35.34,50.39l-32.56.07s-20.58,3.14-21.17,20.23l-.87,25.24-.44,12.67s-26.94,9.5-36.4,1.22l-1.31-8.71-.69-4.58s-9.29,7.7-24.45-1c0,0-10.87-37.11,10-72.74L36,194.22l12.15-8.64,11.11-4.67,11-3.34,11.88-1.7,8.24.14-10,4.78Z"/><path class="cls-10" d="M15.28,267.15s16.4,5,25.14,1.6l.65,9.6s-5.6,6.41-24.45-1Z"/><path class="cls-10" d="M79.91,277.75s-20.42,7.14-38.84.6L43.2,292.9s18.24,4.9,36.27-2.48Z"/><path class="cls-5" d="M51.34,321.62l16.12-10.13L76,304.32s10.87,12.58,3,24.25l-24.72,7.25S53.26,322.88,51.34,321.62Z"/><polygon class="cls-5" points="26.63 303.53 43.2 292.9 47.74 294.08 50.21 305.95 41.58 311.22 34.68 311.22 28.57 313.36 28.01 308.33 25.62 303.57 26.63 303.53"/><path class="cls-11" d="M41.58,311.22l5,3.73,4.79,6.67,16.12-10.13s-4.9-9.82-17.25-5.53Z"/><path class="cls-11" d="M43.2,292.3l-6.62-3.16-8,.79-10.33,7S2.3,297.48.56,307.12s1.09,13.71,1.09,13.71l4.84,4.93,16.61-1.25.64,5.78,4.61,6.45,12.42,3.9,13.75-5.25-2.77-14-6.26-8.07-4.44-2.14-7.84,0-4.64,2.09-.93-5.56-1.41-4.05Z"/><polygon class="cls-12" points="25.62 333.4 26.63 337.43 30 340.64 32.99 342.41 37.91 343.43 78.47 332.36 79.59 329.66 79 328.57 40.42 339.48 33.9 338.94 28.35 336.74 25.62 333.4"/><polygon class="cls-12" points="1.65 320.83 2.13 323.65 3.63 325.74 6.68 327.54 10.83 328.57 16.4 328.57 23.1 327.16 23.45 321.99 17.7 323.27 12.2 323.65 7.36 323.29 1.65 320.83"/><polygon class="cls-12" points="53.48 328.15 81.53 315.3 81.85 317.01 53.68 329.7 53.48 328.15"/><polygon class="cls-12" points="28.18 309.38 48.69 298.64 48.69 300.4 28.18 311 28.18 309.38"/><path class="cls-13" d="M85.23,183.24c-61,12.93-42,109.09-42,109.09,14,7,36.27-1.91,36.27-1.91l1.31-37.91c0-11,12.44-20.25,23.44-20.26l36.05-.05c.42,0,.86,0,1.29,0,40.69-2.9,28.29-50.34,28.29-50.34"/><path class="cls-13" d="M140.22,58.76l5.23,16.93s18.61,2.73,29.23,20c6.24,10.12,35,102.27-70.46,85.56"/><path class="cls-13" d="M91.56,175.66S-.73,169.42,16.33,276.27c0,.61,1,1.37,2.55,2.08,4.76,2.15,15.23,4,22.48.55"/><path class="cls-13" d="M104.22,170.5l-10.7,4.21-12.74,6.17,7,3.73,16.41-3.39c-3.22-4.21,0-10.72,0-10.72,53.9-9.8,43-66.26,43-66.26"/><path class="cls-13" d="M97.34,127.09c-63.93,2.67-20.14-52.91-7-64.73l5.41,4.08c-19.8,42.33,11.4,25,17.92,21.3"/><polyline class="cls-13" points="90.34 62.36 90.34 49.27 96.53 43.28"/><path class="cls-13" d="M95.75,66.44l3.4-4.08s-4.82-.62-4.72-10.66,4.72-9.88,4.72-9.88-.11.53-.25,1.46c-1,6.26-4.54,29.49,19.92,27.34l1.72,7.79c-30.2,36-30.91,96.82-30.91,96.82"/><rect class="cls-13" x="134.11" y="36.55" width="16.63" height="22.52" rx="7.51"/><path class="cls-13" d="M120.54,78.41s2.3,12.84,24.91-2.72"/><path class="cls-13" d="M118.5,80.93s4.94,17,31.22-4.2"/><circle class="cls-6" cx="122.12" cy="46.28" r="2.12"/><circle class="cls-6" cx="105.08" cy="46.28" r="2.12"/><path class="cls-14" d="M110.37,49.72s-4.89,3.93-1.08,5.64"/><path class="cls-14" d="M109.11,59.35s3.16,5,9.39-.47"/><path class="cls-13" d="M175.21,163.13v17.78S163.9,183.8,143.59,182"/><path class="cls-13" d="M134.11,42.56C121.31,43.23,114.47,27,114.47,27s-6,12.89-15.32,14.79c0,0-5.28-4.16-2.62-14.79,4.2-16.82,21-15.52,21-15.52S143.78-.17,154.71,22.65c11.16,23.31-.58,40-13.38,39.71"/><path class="cls-13" d="M139.14,9.33S153-8.1,167.76,6c7.53,7.17-2.09,21.09,11.33,38.17,8.1,10.31,13,27.17-.17,32.54-30.77,12.6-27.47-18-27.47-18"/><path class="cls-14" d="M139.14,37s3.56-25.82-20-26.11"/><path class="cls-14" d="M145.22,36.55s4.59-24.81-12.64-28"/></g></g></svg>