<svg xmlns="http://www.w3.org/2000/svg" viewBox="0 0 751.97 673.11"><defs><style>.cls-1,.cls-19{fill:#ffb0d7;}.cls-2{fill:#ffccc5;}.cls-3{fill:#ffafb1;}.cls-4{fill:#464ae9;}.cls-20,.cls-5{fill:#465fe9;}.cls-6{fill:#00253b;}.cls-7{fill:#ffc000;}.cls-8{fill:#ffd560;}.cls-9{fill:#ff8a3e;}.cls-10{fill:#fff;}.cls-11{fill:#4680e9;}.cls-12,.cls-18{fill:#6bc2f8;}.cls-13,.cls-14,.cls-15{fill:none;}.cls-13,.cls-14,.cls-17,.cls-18,.cls-19,.cls-20,.cls-21{stroke:#00253b;}.cls-13,.cls-14,.cls-15,.cls-16,.cls-17,.cls-19,.cls-20,.cls-21{stroke-miterlimit:10;}.cls-14{stroke-linecap:round;}.cls-15,.cls-16{stroke:#000;}.cls-15{stroke-width:3px;}.cls-16{fill:#3fa9f5;}.cls-17{fill:#ffb800;}.cls-18{stroke-linejoin:bevel;}.cls-21{fill:#ff931e;}</style></defs><g id="Layer_2" data-name="Layer 2"><g id="Layer_6" data-name="Layer 6"><path class="cls-1" d="M349.73,378.22s287.64-56.35,304.45,175.95V671.61H228.31s-27.56-287,121.42-293.39h0"/><polygon class="cls-2" points="378.87 80.58 376.95 101.35 377.7 109.66 380.18 118.62 383.68 124.95 389.47 130.73 398.9 135.15 411.11 136.65 416.98 136.38 420.67 152.71 412.78 161.12 464.98 177.62 468.15 144.78 452.6 92.17 427.96 39.27 400.62 36.86 378.87 80.58"/><path class="cls-3" d="M417.64,135.42s16.91-4.68,26-11.53c0,0-15,17.14-25.91,16.41Z"/><ellipse class="cls-3" cx="426.91" cy="102.28" rx="5.31" ry="3.17"/><ellipse class="cls-3" cx="382.93" cy="102.28" rx="5.77" ry="3.17"/><polygon class="cls-2" points="373.79 84.89 361.8 95 361.8 120.37 363 137.26 380.18 118.62 373.79 84.89"/><polygon class="cls-2" points="392.18 326.88 336.9 351.86 358.37 395.97 418.2 357.27 392.18 326.88"/><polygon class="cls-2" points="232.26 529.22 242.09 569.41 303.04 619.81 333.98 589.25 333.98 542.66 232.26 529.22"/><polygon class="cls-3" points="236.37 540.19 242.09 569.41 270.45 567.12 289.23 511.39 236.37 540.19"/><polygon class="cls-3" points="270.45 576.97 333.98 589.25 333.98 542.66 270.45 576.97"/><polygon class="cls-4" points="446.85 79.82 446.61 99.91 448.88 107.24 452.45 111.08 459.94 113.63 471.25 115.57 479.96 111.08 501.08 60.27 454.26 17.12 443.65 16.04 424.75 18.45 417.64 21.44 451.9 68.98 446.85 79.82"/><polygon class="cls-4" points="378.87 80.58 377.16 96.91 376.95 101.35 377.7 109.66 380.18 118.62 379.02 120.38 373.31 116.13 370.14 106.81 370.14 93.53 372.34 84.8 378.87 80.58"/><path class="cls-5" d="M458.16,70.62s-5,3.45-5,8.41v22.85s.11,9.55,6.74,11.75,24.64-4.46,24.64-4.46l7.22-34.95-31.44-3.37Z"/><path class="cls-5" d="M429.92,16.7s35.75,8,31.54,52.56l11,4.51L476.63,41,454.26,17.12,443.65,16Z"/><polygon class="cls-6" points="408.24 52.56 414.86 63.77 423.38 72.78 430.64 78.09 437.18 80.89 446.81 82.53 449.93 75.12 456.72 70.62 456.35 57.19 453.5 44.32 448.45 35.67 442.1 28.08 432.22 22.87 417.64 21.44 414.46 21.83 407 22.19 395.7 25.24 384.35 32.68 376.11 44.9 372.34 58.01 372.77 68.21 375.64 76.47 378.87 80.58 382.93 79.36 392.82 73.77 400.03 65.21 408.24 52.56"/><path class="cls-6" d="M446.61,16.73s28.69,3.07,21.54,53.89l7.56,4,2.92,7.91v18L476.07,108l-5.14,4.25-11,1.42h-2l3,6.74,7.22-.84,12.06-6.13-.16,7,3.23,16.89,5.39,8.94,8.88,6.08,12.21,1.84,16.55-3.26,11.19-4.66,8.4-8.42,3.33-10.49-1.36-13.89L538.8,92.34l-11.54-16.9-5.62-13.13L518.7,44.9l-.84-20.1L515,15.22l-7.82-8L496.88,1.88,485.45.63l-10.9,2.94-8.41,4.91-9.42,8.68Z"/><path class="cls-7" d="M420.67,152.71s13.07,22.95,47.48-7.93l23.65,9.54,20.5,14.56,14,17.87L538,225.11l3.14,39.21L535.68,296l-9.43,19.67V350.1l-10.38,1.76-47.28.58-24.14,1.93H432.22l-25-2.51-19-1.76L386,339.8l2.67-11.35L361.8,340.61l-1.39-6.13,6-52.18,9-36.48L347,244.64,325.65,238,314.3,227.63l-4.57-8.93V201.53l4.91-13.9L325.38,166,346,137.26l15.85-16.89,10.54,6.76-6.91,16-3.63,12.35-2.1,13.41.71,5.65,3.75,5.69,9.62,3,10.37-3L407,169.56Z"/><polygon class="cls-8" points="368.56 272.36 366.11 282.3 364.19 299.07 533.92 299.07 535.41 295.97 539.48 272.36 368.56 272.36"/><polygon class="cls-8" points="314.64 187.63 309.73 201.53 309.73 218.7 314.3 227.63 325.65 237.97 347.02 244.64 375.35 245.82 372.48 257.5 540.6 257.5 538.01 225.11 526.25 186.75 523.47 183.18 316.85 183.18 314.64 187.63"/><path class="cls-9" d="M357.61,357.1l30.65-7s42.41,7.41,80.33,2.34c0,0,43.92,2.16,47.28-.58,0,0,27,102-68.48,97.65l-63.1.14s-39.87,6.07-41,39.21l-1.69,48.9-.85,24.56s-52.2,18.4-70.53,2.36l-2.54-16.87-1.33-8.89s-18,14.93-47.39-2c0,0-21.06-71.91,19.4-140.95l18.07-20.07L280,359.16l21.52-9.06,21.31-6.47,23-3.29,16,.27-19.41,9.26Z"/><path class="cls-10" d="M216.34,517.21s31.77,9.65,48.72,3.11l1.27,18.6s-10.86,12.42-47.39-2Z"/><path class="cls-10" d="M341.58,537.76S302,551.6,266.33,538.92l4.12,28.2s35.34,9.5,70.28-4.8Z"/><path class="cls-5" d="M286.22,622.78l31.23-19.64L334,589.25s21.08,24.38,5.83,47l-47.89,14S289.93,625.21,286.22,622.78Z"/><polygon class="cls-5" points="238.34 587.73 270.45 567.12 279.25 569.41 284.02 592.42 267.3 602.61 253.93 602.61 242.09 606.77 241.01 597.02 236.37 587.81 238.34 587.73"/><path class="cls-11" d="M267.3,602.61l9.64,7.23,9.28,12.94,31.23-19.64s-9.48-19-33.43-10.72Z"/><path class="cls-11" d="M270.45,566l-12.83-6.13-15.53,1.54-20,13.52s-30.89,1.11-34.25,19.78,2.1,26.57,2.1,26.57l9.38,9.56,32.19-2.43,1.25,11.2,8.93,12.5,24.07,7.56,26.63-10.17L287,622.4l-12.14-15.63-8.6-4.16-15.19.1-9,4.06L240.3,596l-2.74-7.84Z"/><polygon class="cls-12" points="236.37 645.61 238.34 653.41 244.88 659.63 250.65 663.07 260.2 665.04 338.8 643.59 340.96 638.36 339.81 636.24 265.06 657.38 252.42 656.33 241.67 652.07 236.37 645.61"/><polygon class="cls-12" points="189.92 621.24 190.85 626.71 193.77 630.76 199.68 634.24 207.72 636.24 218.52 636.24 231.49 633.51 232.16 623.5 221.03 625.97 210.38 626.71 200.99 626.01 189.92 621.24"/><polygon class="cls-12" points="290.36 635.43 344.72 610.53 345.35 613.84 290.75 638.44 290.36 635.43"/><polygon class="cls-12" points="241.33 599.07 281.08 578.25 281.08 581.65 241.33 602.2 241.33 599.07"/><path class="cls-13" d="M351.9,354.62C233.74,379.67,270.45,566,270.45,566c27.19,13.6,70.28-3.7,70.28-3.7l2.54-73.46c0-21.32,24.11-39.25,45.42-39.27l69.85-.09c.83,0,1.68,0,2.51-.09,78.84-5.61,54.82-97.55,54.82-97.55"/><path class="cls-13" d="M458.46,113.4l10.13,32.8s36.05,5.3,56.65,38.7c12.08,19.62,67.81,198.19-136.55,165.8"/><path class="cls-13" d="M364.16,339.94s-178.85-12.11-145.78,195c0,1.19,1.85,2.65,4.93,4,9.24,4.17,29.52,7.66,43.57,1.06"/><path class="cls-13" d="M388.69,329.94,368,338.09l-24.69,12,13.63,7.22,31.79-6.57c-6.23-8.16,0-20.76,0-20.76,104.44-19,83.4-128.41,83.4-128.41"/><path class="cls-13" d="M375.35,245.82c-123.88,5.16-39-102.55-13.55-125.45l10.47,7.91c-38.35,82,22.11,48.54,34.74,41.27"/><polyline class="cls-13" points="361.8 120.37 361.8 95 373.79 83.4"/><path class="cls-13" d="M372.27,128.28l6.6-7.91s-9.35-1.19-9.15-20.65,9.15-19.14,9.15-19.14-.21,1-.49,2.82c-1.86,12.13-8.79,57.14,38.6,53l3.33,15.09c-58.51,69.71-59.9,187.62-59.9,187.62"/><rect class="cls-13" x="446.61" y="70.35" width="32.23" height="43.64" rx="7.51"/><path class="cls-13" d="M420.31,151.47s4.47,24.88,48.28-5.27"/><path class="cls-13" d="M416.36,156.36s9.58,33,60.5-8.13"/><circle class="cls-6" cx="423.38" cy="89.21" r="4.11"/><circle class="cls-6" cx="390.36" cy="89.21" r="4.11"/><path class="cls-14" d="M400.62,95.88s-9.49,7.62-2.1,10.93"/><path class="cls-14" d="M398.16,114.54s6.12,9.77,18.2-.91"/><path class="cls-13" d="M526.25,315.64V350.1s-21.9,5.61-61.27,2"/><path class="cls-13" d="M334,589.25V564.68"/><line class="cls-13" x1="279.84" y1="569.41" x2="284.02" y2="593.89"/><path class="cls-13" d="M339.81,636.24c15.2-23.5-5.83-47-5.83-47l-16.15,13.89"/><line class="cls-13" x1="236.37" y1="542.66" x2="240.3" y2="562.5"/><path class="cls-13" d="M231.49,633.51c-6,2.67-17.16,3-17.16,3-9.17.3-15.17-2.11-18.68-4.3a13,13,0,0,1-5.26-6.6C171.76,574.89,221,574.89,221,574.89L240.3,562.5S256,554.59,270.45,566L237,588.67"/><path class="cls-13" d="M188.49,619.81s10.73,14.24,43.77,3.13"/><path class="cls-13" d="M266.28,603.14s25,7.28,25.64,47.14"/><path class="cls-13" d="M286.22,622.78l31.61-19.64s-11-19.73-33.81-9.25l-17.74,9.25s-37.19-8.82-34.66,32.46c0,0,.66,7.38,9,14.3A34.46,34.46,0,0,0,272.32,656l67.49-19.79c2.67,1.85-.16,7.11-.16,7.11l-75.16,21.29a10.2,10.2,0,0,1-2.38.39c-23.19.9-28.69-24-28.69-24"/><path class="cls-13" d="M221,574.89s21.44,9.22,21.06,31.88"/><path class="cls-13" d="M446.61,82c-24.8,1.29-38.06-30.09-38.06-30.09s-11.57,25-29.68,28.67c0,0-10.23-8.07-5.09-28.67,8.14-32.59,40.68-30.08,40.68-30.08S465.35-.8,486.53,43.42c21.63,45.17-1.12,77.54-25.92,77"/><path class="cls-13" d="M456.35,17.61s26.77-33.78,55.47-6.42c14.59,13.9-4.05,40.87,22,74,15.7,20,25.12,52.66-.34,63.08-59.61,24.4-53.23-34.83-53.23-34.83"/><path class="cls-14" d="M456.35,71.19s6.9-50-38.71-50.59"/><path class="cls-14" d="M468.15,70.35S477,22.28,443.65,16"/><line class="cls-15" y1="671.61" x2="751.72" y2="671.61"/><rect class="cls-16" x="604.98" y="84.52" width="146.49" height="249.59"/><rect class="cls-17" x="614.23" y="96.26" width="127.98" height="226.1"/><path class="cls-18" d="M675.19,96.26s21.48,4.08,7.8,61.78c-17.3,73-68.76,73-68.76,73V118.62S666.89,113.4,675.19,96.26Z"/><path class="cls-19" d="M680.37,295.26s15.67-134,30.4-199h31.45v226.1s3.07-51.72-124.91-29Z"/><path class="cls-20" d="M675.19,96.26s10.22,49.94-61,134.77v91.33H701s-3.59-130.77,41.2-226.1Z"/><path class="cls-21" d="M614.23,262.11s18.16,15.05,41.44-28.1,40.52-117.88,86.55-137.75V270S726,238,703.64,257.5s-25.73,64.86-49.46,64.86H614.23Z"/></g></g></svg>